<?xml version="1.0" standalone="no"?>
<!DOCTYPE svg PUBLIC "-//W3C//DTD SVG 20010904//EN"
 "http://www.w3.org/TR/2001/REC-SVG-20010904/DTD/svg10.dtd">
<svg version="1.0" xmlns="http://www.w3.org/2000/svg"
 width="700.000000pt" height="700.000000pt" viewBox="0 0 700.000000 700.000000"
 preserveAspectRatio="xMidYMid meet">
<metadata>
Created by potrace 1.11, written by Peter Selinger 2001-2013
</metadata>
<g transform="translate(0.000000,700.000000) scale(0.100000,-0.100000)"
fill="#000000" stroke="none">
<path d="M710 6991 c-74 -23 -136 -76 -171 -148 l-24 -48 0 -3295 0 -3295 22
-45 c26 -55 74 -104 127 -133 l41 -22 2770 -3 c3101 -2 2835 -9 2922 71 25 23
55 62 67 87 l21 45 1 3285 c0 2796 -1 3291 -13 3327 -18 53 -83 127 -137 156
l-41 22 -2780 2 c-1529 1 -2791 -2 -2805 -6z m5238 -3491 l0 -2960 -2449 0
-2448 0 0 2960 0 2960 2448 0 2449 0 0 -2960z"/>
<path d="M1812 4798 l3 -492 480 -1 c264 -1 485 1 491 2 7 3 11 150 11 493 l0
490 -494 0 -493 0 2 -492z m823 251 c71 -63 81 -46 -172 -300 -125 -126 -235
-229 -243 -229 -16 0 -300 280 -300 295 0 13 82 95 94 95 6 0 54 -44 108 -97
l97 -97 182 182 c100 100 186 182 190 182 5 0 24 -14 44 -31z"/>
<path d="M3004 4798 l1 -272 1105 0 c608 -1 1115 1 1128 3 l22 3 0 269 0 269
-1128 0 -1128 0 0 -272z"/>
<path d="M1814 4001 c-2 -2 -4 -224 -4 -493 l0 -488 493 2 492 3 0 490 0 490
-488 0 c-268 0 -490 -1 -493 -4z m827 -244 c20 -19 38 -41 42 -50 4 -11 -58
-80 -225 -246 -126 -127 -235 -231 -240 -231 -13 0 -298 285 -298 298 0 16 79
92 95 92 9 0 58 -42 110 -94 l93 -94 179 179 c98 98 185 179 193 179 9 0 32
-15 51 -33z"/>
<path d="M3012 3775 c-4 -5 -7 -128 -8 -272 l-1 -263 1129 1 1128 0 0 270 c0
148 -3 269 -7 270 -5 0 -509 1 -1121 2 -734 1 -1116 -1 -1120 -8z"/>
<path d="M1810 2197 l0 -492 493 0 492 0 1 493 1 492 -494 0 -493 0 0 -493z"/>
<path d="M3004 2205 c1 -190 4 -268 13 -273 8 -5 2193 -8 2236 -3 4 1 7 123 7
271 l0 270 -1128 0 -1128 0 0 -265z"/>
</g>
</svg>
